<svg width="74" height="74" viewBox="0 0 74 74" fill="none" xmlns="http://www.w3.org/2000/svg">
<g clip-path="url(#clip0_12_3086)">
<path d="M30.5497 32.8282C34.059 31.0815 36.8727 28.1969 38.5316 24.6452C40.1905 21.0935 40.5965 17.0843 39.6835 13.2721C38.7705 9.45994 36.5923 6.06976 33.5044 3.65489C30.4165 1.24003 26.6013 -0.0569274 22.6815 -0.0243015C18.7616 0.00832433 14.9685 1.3686 11.9213 3.83453C8.87401 6.30046 6.75255 9.72643 5.90311 13.5533C5.05366 17.3802 5.52639 21.382 7.24413 24.9056C8.96188 28.4292 11.8232 31.2665 15.3612 32.9546C10.8709 34.555 6.9849 37.504 4.23512 41.398C1.48535 45.2919 0.00615276 49.9405 0 54.7075C0 55.1164 0.162425 55.5085 0.451544 55.7976C0.740662 56.0867 1.13279 56.2492 1.54167 56.2492H27.75C28.1589 56.2492 28.551 56.0867 28.8401 55.7976C29.1292 55.5085 29.2917 55.1164 29.2917 54.7075V45.4575C29.2917 43.822 29.9414 42.2535 31.0978 41.097C32.2543 39.9405 33.8228 39.2908 35.4583 39.2908H38.4091C38.5633 39.2912 38.714 39.2453 38.8418 39.159C38.9697 39.0728 39.0687 38.9502 39.1261 38.8071C39.1836 38.664 39.1968 38.507 39.164 38.3563C39.1313 38.2057 39.0541 38.0683 38.9425 37.9619C36.5489 35.6641 33.6855 33.9126 30.5497 32.8282ZM25.4375 46.6137C25.4375 47.2271 25.1939 47.8152 24.7602 48.2489C24.3265 48.6826 23.7383 48.9262 23.125 48.9262C22.5117 48.9262 21.9235 48.6826 21.4898 48.2489C21.0561 47.8152 20.8125 47.2271 20.8125 46.6137V41.5108C20.8125 40.8975 21.0561 40.3093 21.4898 39.8756C21.9235 39.442 22.5117 39.1983 23.125 39.1983C23.7383 39.1983 24.3265 39.442 24.7602 39.8756C25.1939 40.3093 25.4375 40.8975 25.4375 41.5108V46.6137ZM22.8167 28.4992C19.8574 28.4934 17.0211 27.3147 14.9294 25.2213C12.8377 23.1279 11.6613 20.2906 11.6581 17.3313C11.6701 15.5519 12.1134 13.802 12.95 12.2315C17.1091 15.5342 22.2633 17.3327 27.5742 17.3344C29.7187 17.3281 31.8524 17.0304 33.9167 16.4495C33.9413 16.7578 34.0061 17.0292 34.0061 17.3313C34.0028 20.296 32.8222 23.1379 30.7239 25.2322C28.6255 27.3265 25.7813 28.5016 22.8167 28.4992Z" fill="url(#paint0_linear_12_3086)"/>
<path d="M74 47.7917C74 46.565 73.5127 45.3887 72.6454 44.5213C71.778 43.6539 70.6016 43.1667 69.375 43.1667H63.9792C63.5703 43.1667 63.1782 43.0042 62.8891 42.7151C62.5999 42.426 62.4375 42.0339 62.4375 41.625V40.0833C62.4359 38.6528 61.8669 37.2813 60.8553 36.2697C59.8438 35.2581 58.4722 34.6891 57.0417 34.6875H50.875C49.4445 34.6891 48.073 35.2581 47.0614 36.2697C46.0498 37.2813 45.4808 38.6528 45.4792 40.0833V41.625C45.4792 42.0339 45.3168 42.426 45.0276 42.7151C44.7385 43.0042 44.3464 43.1667 43.9375 43.1667H38.5417C37.3151 43.1667 36.1387 43.6539 35.2713 44.5213C34.404 45.3887 33.9167 46.565 33.9167 47.7917V69.375C33.9167 70.6016 34.404 71.778 35.2713 72.6454C36.1387 73.5127 37.3151 74 38.5417 74H69.375C70.6016 74 71.778 73.5127 72.6454 72.6454C73.5127 71.778 74 70.6016 74 69.375V47.7917ZM50.1042 40.0833C50.105 39.8791 50.1865 39.6836 50.3309 39.5392C50.4752 39.3948 50.6708 39.3133 50.875 39.3125H57.0417C57.2459 39.3133 57.4415 39.3948 57.5858 39.5392C57.7302 39.6836 57.8117 39.8791 57.8125 40.0833V41.625C57.8125 42.0339 57.6501 42.426 57.361 42.7151C57.0719 43.0042 56.6797 43.1667 56.2709 43.1667H51.6459C51.237 43.1667 50.8448 43.0042 50.5557 42.7151C50.2666 42.426 50.1042 42.0339 50.1042 41.625V40.0833ZM61.6667 60.8958C61.6667 61.1003 61.5855 61.2963 61.4409 61.4409C61.2964 61.5855 61.1003 61.6667 60.8959 61.6667H58.5834C58.1745 61.6667 57.7823 61.8291 57.4932 62.1182C57.2041 62.4073 57.0417 62.7995 57.0417 63.2083V65.5208C57.0417 65.7253 56.9605 65.9213 56.8159 66.0659C56.6714 66.2105 56.4753 66.2917 56.2709 66.2917H51.6459C51.4414 66.2917 51.2453 66.2105 51.1008 66.0659C50.9562 65.9213 50.875 65.7253 50.875 65.5208V63.2083C50.875 62.7995 50.7126 62.4073 50.4235 62.1182C50.1344 61.8291 49.7422 61.6667 49.3334 61.6667H47.0209C46.8164 61.6667 46.6204 61.5855 46.4758 61.4409C46.3312 61.2963 46.25 61.1003 46.25 60.8958V56.2708C46.25 56.0664 46.3312 55.8703 46.4758 55.7258C46.6204 55.5812 46.8164 55.5 47.0209 55.5H49.3334C49.7422 55.5 50.1344 55.3376 50.4235 55.0485C50.7126 54.7593 50.875 54.3672 50.875 53.9583V51.6458C50.875 51.4414 50.9562 51.2453 51.1008 51.1008C51.2453 50.9562 51.4414 50.875 51.6459 50.875H56.2709C56.4753 50.875 56.6714 50.9562 56.8159 51.1008C56.9605 51.2453 57.0417 51.4414 57.0417 51.6458V53.9583C57.0417 54.3672 57.2041 54.7593 57.4932 55.0485C57.7823 55.3376 58.1745 55.5 58.5834 55.5H60.8959C61.1003 55.5 61.2964 55.5812 61.4409 55.7258C61.5855 55.8703 61.6667 56.0664 61.6667 56.2708V60.8958Z" fill="url(#paint1_linear_12_3086)"/>
</g>
<defs>
<linearGradient id="paint0_linear_12_3086" x1="20.0801" y1="-0.0249023" x2="20.0801" y2="56.2492" gradientUnits="userSpaceOnUse">
<stop stop-color="#115B8A"/>
<stop offset="1" stop-color="#008080"/>
</linearGradient>
<linearGradient id="paint1_linear_12_3086" x1="53.9584" y1="34.6875" x2="53.9584" y2="74" gradientUnits="userSpaceOnUse">
<stop stop-color="#115B8A"/>
<stop offset="1" stop-color="#008080"/>
</linearGradient>
<clipPath id="clip0_12_3086">
<rect width="74" height="74" fill="white"/>
</clipPath>
</defs>
</svg>
