<svg width="74" height="74" viewBox="0 0 74 74" fill="none" xmlns="http://www.w3.org/2000/svg">
<path d="M58.9688 28.9062H55.5C54.8641 28.9062 54.3438 28.3859 54.3438 27.75C54.3438 27.1141 54.8641 26.5938 55.5 26.5938H58.9688C59.6047 26.5938 60.125 27.1141 60.125 27.75C60.125 28.3859 59.6047 28.9062 58.9688 28.9062Z" fill="url(#paint0_linear_12_2964)"/>
<path d="M58.9688 23.125H54.3438C53.7078 23.125 53.1875 22.6047 53.1875 21.9688C53.1875 21.3328 53.7078 20.8125 54.3438 20.8125H58.9688C59.6047 20.8125 60.125 21.3328 60.125 21.9688C60.125 22.6047 59.6047 23.125 58.9688 23.125Z" fill="url(#paint1_linear_12_2964)"/>
<path d="M57.8125 17.3438H55.5C54.8641 17.3438 54.3438 16.8234 54.3438 16.1875C54.3438 15.5516 54.8641 15.0312 55.5 15.0312H57.8125V17.3438Z" fill="url(#paint2_linear_12_2964)"/>
<path d="M58.9688 11.5625H54.3438C53.7078 11.5625 53.1875 11.0422 53.1875 10.4062C53.1875 9.77031 53.7078 9.25 54.3438 9.25H58.9688C59.6047 9.25 60.125 9.77031 60.125 10.4062C60.125 11.0422 59.6047 11.5625 58.9688 11.5625Z" fill="url(#paint3_linear_12_2964)"/>
<path d="M23.125 42.2261V46.2498C23.125 50.077 26.2353 53.1873 30.0625 53.1873C33.8897 53.1873 37 50.077 37 46.2498V42.2261C34.9187 43.3129 32.56 43.9373 30.0625 43.9373C27.565 43.9373 25.2062 43.3129 23.125 42.2261Z" fill="url(#paint4_linear_12_2964)"/>
<path d="M46.25 27.75H45.0938V20.8125H46.25C47.5219 20.8125 48.5625 21.8531 48.5625 23.125V25.4375C48.5625 26.7094 47.5219 27.75 46.25 27.75Z" fill="url(#paint5_linear_12_2964)"/>
<path d="M13.875 27.75H15.0312V20.8125H13.875C12.6031 20.8125 11.5625 21.8531 11.5625 23.125V25.4375C11.5625 26.7094 12.6031 27.75 13.875 27.75Z" fill="url(#paint6_linear_12_2964)"/>
<path d="M50.2506 47.2444L39.3125 44.5156V46.25C39.3125 51.3491 35.1616 55.5 30.0625 55.5C24.9634 55.5 20.8125 51.3491 20.8125 46.25V44.5156L9.87437 47.2444C6.78719 48.0191 4.625 50.7941 4.625 53.9738V69.375H12.7188V62.4375C12.7188 61.8016 13.2391 61.2812 13.875 61.2812C14.5109 61.2812 15.0312 61.8016 15.0312 62.4375V69.375H45.0938V62.4375C45.0938 61.8016 45.6141 61.2812 46.25 61.2812C46.8859 61.2812 47.4062 61.8016 47.4062 62.4375V69.375H55.5V53.9738C55.5 50.7941 53.3378 48.0191 50.2506 47.2444Z" fill="url(#paint7_linear_12_2964)"/>
<path d="M61.2812 39.8906C62.2391 39.8906 63.0156 39.1141 63.0156 38.1562C63.0156 37.1984 62.2391 36.4219 61.2812 36.4219C60.3234 36.4219 59.5469 37.1984 59.5469 38.1562C59.5469 39.1141 60.3234 39.8906 61.2812 39.8906Z" fill="url(#paint8_linear_12_2964)"/>
<path d="M64.75 30.8488V17.3438H57.8125V30.8488C54.9913 32.19 53.0719 35.0922 53.1875 38.4453C53.3378 42.6656 56.9106 46.1691 61.1425 46.2384C65.675 46.3194 69.375 42.6772 69.375 38.1562C69.375 34.9303 67.4788 32.1553 64.75 30.8488ZM61.2813 42.2031C59.0497 42.2031 57.2344 40.3878 57.2344 38.1562C57.2344 35.9247 59.0497 34.1094 61.2813 34.1094C63.5128 34.1094 65.3281 35.9247 65.3281 38.1562C65.3281 40.3878 63.5128 42.2031 61.2813 42.2031Z" fill="url(#paint9_linear_12_2964)"/>
<path d="M64.75 8.09375C64.75 6.17438 63.2006 4.625 61.2812 4.625C59.3619 4.625 57.8125 6.17438 57.8125 8.09375V15.0312H64.75V8.09375Z" fill="url(#paint10_linear_12_2964)"/>
<path d="M21.9688 12.7188V11.5625C21.9688 10.9959 22.385 10.5103 22.94 10.4178C23.495 10.3369 24.0384 10.6606 24.2234 11.1925L24.8478 13.0656C25.7034 15.6209 28.0738 17.3322 30.7678 17.3322L28.9641 11.9209C28.7906 11.3891 29.0103 10.8109 29.4959 10.545C29.9816 10.2791 30.5944 10.3831 30.9412 10.8109L32.2825 12.4181C34.8956 15.5516 38.7113 17.3438 42.7812 17.3438V11.5625C42.7812 7.73531 39.6709 4.625 35.8438 4.625H24.2812C20.4541 4.625 17.3438 7.73531 17.3438 11.5625V17.3438C19.8991 17.3438 21.9688 15.2741 21.9688 12.7188Z" fill="url(#paint11_linear_12_2964)"/>
<path d="M32.8144 16.1643L32.9647 16.6037C33.1959 17.309 33.0803 18.0837 32.6525 18.6849C32.2247 19.2862 31.5078 19.6562 30.7678 19.6562C27.8078 19.6562 25.1253 18.1415 23.5875 15.748C22.4659 18.0605 20.0841 19.6562 17.3438 19.6562V28.9062C17.3438 35.9362 23.0325 41.6249 30.0625 41.6249C37.0925 41.6249 42.7812 35.9362 42.7812 28.9062V19.6562C39.1159 19.6562 35.6241 18.4074 32.8144 16.1643ZM26.0734 24.0846L24.3391 25.2409C24.1541 25.368 23.9228 25.4374 23.7031 25.4374C23.4834 25.4374 23.2522 25.368 23.0672 25.2409L21.3328 24.0846C20.8009 23.7262 20.6622 23.0093 21.0091 22.4774C21.3675 21.9455 22.0844 21.8068 22.6162 22.1537L23.7147 22.8821L24.8131 22.1537C25.345 21.7952 26.0619 21.9455 26.4203 22.4774C26.7788 23.0093 26.6053 23.7377 26.0734 24.0846ZM32.375 35.8437H27.75C27.1141 35.8437 26.5938 35.3234 26.5938 34.6874C26.5938 34.0515 27.1141 33.5312 27.75 33.5312H32.375C33.0109 33.5312 33.5312 34.0515 33.5312 34.6874C33.5312 35.3234 33.0109 35.8437 32.375 35.8437ZM38.7922 24.0846L37.0578 25.2409C36.8728 25.368 36.6416 25.4374 36.4219 25.4374C36.2022 25.4374 35.9709 25.368 35.7859 25.2409L34.0516 24.0846C33.5197 23.7262 33.3809 23.0093 33.7278 22.4774C34.0863 21.9455 34.7916 21.8068 35.335 22.1537L36.4334 22.8821L37.5319 22.1537C38.0637 21.7952 38.7806 21.9455 39.1391 22.4774C39.4744 23.0093 39.3241 23.7377 38.7922 24.0846Z" fill="url(#paint12_linear_12_2964)"/>
<defs>
<linearGradient id="paint0_linear_12_2964" x1="57.2344" y1="26.5938" x2="57.2344" y2="28.9062" gradientUnits="userSpaceOnUse">
<stop stop-color="#115B8A"/>
<stop offset="1" stop-color="#008080"/>
</linearGradient>
<linearGradient id="paint1_linear_12_2964" x1="56.6562" y1="20.8125" x2="56.6562" y2="23.125" gradientUnits="userSpaceOnUse">
<stop stop-color="#115B8A"/>
<stop offset="1" stop-color="#008080"/>
</linearGradient>
<linearGradient id="paint2_linear_12_2964" x1="56.0781" y1="15.0312" x2="56.0781" y2="17.3438" gradientUnits="userSpaceOnUse">
<stop stop-color="#115B8A"/>
<stop offset="1" stop-color="#008080"/>
</linearGradient>
<linearGradient id="paint3_linear_12_2964" x1="56.6562" y1="9.25" x2="56.6562" y2="11.5625" gradientUnits="userSpaceOnUse">
<stop stop-color="#115B8A"/>
<stop offset="1" stop-color="#008080"/>
</linearGradient>
<linearGradient id="paint4_linear_12_2964" x1="30.0625" y1="42.2261" x2="30.0625" y2="53.1873" gradientUnits="userSpaceOnUse">
<stop stop-color="#115B8A"/>
<stop offset="1" stop-color="#008080"/>
</linearGradient>
<linearGradient id="paint5_linear_12_2964" x1="46.8281" y1="20.8125" x2="46.8281" y2="27.75" gradientUnits="userSpaceOnUse">
<stop stop-color="#115B8A"/>
<stop offset="1" stop-color="#008080"/>
</linearGradient>
<linearGradient id="paint6_linear_12_2964" x1="13.2969" y1="20.8125" x2="13.2969" y2="27.75" gradientUnits="userSpaceOnUse">
<stop stop-color="#115B8A"/>
<stop offset="1" stop-color="#008080"/>
</linearGradient>
<linearGradient id="paint7_linear_12_2964" x1="30.0625" y1="44.5156" x2="30.0625" y2="69.375" gradientUnits="userSpaceOnUse">
<stop stop-color="#115B8A"/>
<stop offset="1" stop-color="#008080"/>
</linearGradient>
<linearGradient id="paint8_linear_12_2964" x1="61.2812" y1="36.4219" x2="61.2812" y2="39.8906" gradientUnits="userSpaceOnUse">
<stop stop-color="#115B8A"/>
<stop offset="1" stop-color="#008080"/>
</linearGradient>
<linearGradient id="paint9_linear_12_2964" x1="61.2788" y1="17.3438" x2="61.2788" y2="46.2398" gradientUnits="userSpaceOnUse">
<stop stop-color="#115B8A"/>
<stop offset="1" stop-color="#008080"/>
</linearGradient>
<linearGradient id="paint10_linear_12_2964" x1="61.2812" y1="4.625" x2="61.2812" y2="15.0312" gradientUnits="userSpaceOnUse">
<stop stop-color="#115B8A"/>
<stop offset="1" stop-color="#008080"/>
</linearGradient>
<linearGradient id="paint11_linear_12_2964" x1="30.0625" y1="4.625" x2="30.0625" y2="17.3438" gradientUnits="userSpaceOnUse">
<stop stop-color="#115B8A"/>
<stop offset="1" stop-color="#008080"/>
</linearGradient>
<linearGradient id="paint12_linear_12_2964" x1="30.0625" y1="15.748" x2="30.0625" y2="41.6249" gradientUnits="userSpaceOnUse">
<stop stop-color="#115B8A"/>
<stop offset="1" stop-color="#008080"/>
</linearGradient>
</defs>
</svg>
