<svg width="46" height="46" viewBox="0 0 46 46" fill="none" xmlns="http://www.w3.org/2000/svg">
<path d="M0 16C0 7.16344 7.16344 0 16 0H30C38.8366 0 46 7.16344 46 16V30C46 38.8366 38.8366 46 30 46H16C7.16344 46 0 38.8366 0 30V16Z" fill="#F3F3F3"/>
<g clip-path="url(#clip0_10_8899)">
<path d="M27.6134 10.5C26.2806 10.5922 24.7228 11.4453 23.815 12.5562C22.9869 13.564 22.3056 15.0609 22.5713 16.5156C24.0275 16.5609 25.5322 15.6875 26.404 14.5578C27.2197 13.5062 27.8368 12.0187 27.6134 10.5Z" fill="#008080"/>
<path d="M32.8805 18.8875C31.6009 17.2828 29.8024 16.3516 28.104 16.3516C25.8618 16.3516 24.9134 17.425 23.3556 17.425C21.7494 17.425 20.5291 16.3547 18.59 16.3547C16.6853 16.3547 14.6572 17.5187 13.3713 19.5094C11.5635 22.3125 11.8729 27.5827 14.8025 32.0718C15.851 33.678 17.2509 35.4843 19.0822 35.4999C20.7119 35.5155 21.1712 34.4546 23.379 34.4436C25.5868 34.4311 26.0056 35.514 27.6321 35.4968C29.4649 35.4827 30.9415 33.4812 31.9899 31.8749C32.7415 30.7234 33.0212 30.1437 33.604 28.8437C29.3649 27.2296 28.6853 21.2015 32.8805 18.8875Z" fill="#008080"/>
</g>
<defs>
<clipPath id="clip0_10_8899">
<rect width="25" height="25" fill="white" transform="translate(10.75 10.5)"/>
</clipPath>
</defs>
</svg>
