<svg width="32" height="32" viewBox="0 0 32 32" fill="none" xmlns="http://www.w3.org/2000/svg">
<path d="M25.5999 14.3599H8.95989L17.4399 5.87992C17.5915 5.73542 17.7122 5.56165 17.7947 5.36913C17.8771 5.17661 17.9196 4.96935 17.9196 4.75992C17.9196 4.55048 17.8771 4.34322 17.7947 4.1507C17.7122 3.95818 17.5915 3.78441 17.4399 3.63992C17.2954 3.48831 17.1216 3.36761 16.9291 3.28514C16.7366 3.20268 16.5293 3.16016 16.3199 3.16016C16.1104 3.16016 15.9032 3.20268 15.7107 3.28514C15.5182 3.36761 15.3444 3.48831 15.1999 3.63992L6.23989 12.5999C5.45739 13.3993 4.97669 14.4455 4.87989 15.5599C4.87989 15.7199 4.79989 15.7999 4.79989 15.9599C4.78721 16.124 4.81467 16.2888 4.87989 16.4399C4.99272 17.55 5.4711 18.5912 6.23989 19.3999L15.1999 28.3599C15.4979 28.652 15.8992 28.8147 16.3166 28.8126C16.7339 28.8105 17.1335 28.6438 17.4286 28.3487C17.7237 28.0536 17.8904 27.6539 17.8926 27.2366C17.8947 26.8193 17.732 26.418 17.4399 26.1199L9.03989 17.5599H25.5999C26.0242 17.5599 26.4312 17.3913 26.7313 17.0913C27.0313 16.7912 27.1999 16.3843 27.1999 15.9599C27.1999 15.5356 27.0313 15.1286 26.7313 14.8285C26.4312 14.5285 26.0242 14.3599 25.5999 14.3599Z" fill="#0D2F2F"/>
</svg>
