<svg width="32" height="32" viewBox="0 0 32 32" fill="none" xmlns="http://www.w3.org/2000/svg">
<g clip-path="url(#clip0_149_6637)">
<path d="M18.4224 7.55867L24.4278 13.56L13.5611 24.4267L7.55977 18.4213L18.4224 7.55867ZM14.4144 26.1507L26.1478 14.4173C26.3691 14.2 26.5078 13.8987 26.5078 13.564C26.5078 13.2293 26.3704 12.928 26.1491 12.7107L19.2744 5.836C19.0531 5.62533 18.7518 5.496 18.4211 5.496C18.0904 5.496 17.7891 5.62533 17.5678 5.83733L5.83444 17.5707C5.61311 17.788 5.47444 18.0893 5.47444 18.424C5.47444 18.7587 5.61177 19.06 5.83311 19.2773L12.7078 26.152C12.9291 26.3627 13.2304 26.492 13.5611 26.492C13.8918 26.492 14.1931 26.3627 14.4144 26.1507ZM31.2984 14.0533L14.0744 31.2973C13.6318 31.732 13.0251 32 12.3558 32C11.6864 32 11.0798 31.732 10.6371 31.2973L8.24511 28.9067C8.88111 28.2507 9.27177 27.3547 9.27177 26.3667C9.27177 24.3493 7.63577 22.7133 5.61844 22.7133C4.63177 22.7133 3.73577 23.1053 3.07844 23.7413L3.07977 23.74L0.705108 21.348C0.270441 20.9053 0.00244141 20.2987 0.00244141 19.6293C0.00244141 18.96 0.270441 18.3533 0.705108 17.9107L17.9304 0.702667C18.3731 0.268 18.9798 0 19.6491 0C20.3184 0 20.9251 0.268 21.3678 0.702667L23.7424 3.07733C23.0558 3.74267 22.6291 4.67333 22.6291 5.70267C22.6291 7.72 24.2651 9.356 26.2824 9.356C27.3131 9.356 28.2438 8.92933 28.9078 8.24267L28.9091 8.24133L31.3011 10.616C31.7358 11.0587 32.0038 11.6653 32.0038 12.3347C32.0038 13.004 31.7358 13.6107 31.3011 14.0533H31.2984Z" fill="white"/>
</g>
<defs>
<clipPath id="clip0_149_6637">
<rect width="32" height="32" fill="white"/>
</clipPath>
</defs>
</svg>
