<svg width="44" height="44" viewBox="0 0 44 44" fill="none" xmlns="http://www.w3.org/2000/svg">
<path d="M0 22C0 12.6177 0 7.92655 2.47976 4.69486C3.11817 3.86288 3.86288 3.11817 4.69486 2.47976C7.92655 0 12.6177 0 22 0C31.3823 0 36.0735 0 39.3051 2.47976C40.1371 3.11817 40.8818 3.86288 41.5202 4.69486C44 7.92655 44 12.6177 44 22C44 31.3823 44 36.0735 41.5202 39.3051C40.8818 40.1371 40.1371 40.8818 39.3051 41.5202C36.0735 44 31.3823 44 22 44C12.6177 44 7.92655 44 4.69486 41.5202C3.86288 40.8818 3.11817 40.1371 2.47976 39.3051C0 36.0735 0 31.3823 0 22Z" fill="#F85E61"/>
<path d="M14.2608 12.9316C15.2855 12.3583 16.5925 12.2236 17.8421 12.5402C18.4502 12.6942 18.9698 13.0885 19.2818 13.6327L20.3591 15.5117C21.157 16.9034 20.7188 18.6767 19.3645 19.5365L18.4167 20.1383C18.0244 20.3874 17.8805 20.7672 17.9705 21.0691C18.2915 22.146 19.0033 23.3422 19.7858 24.1606C20.0187 24.4042 20.445 24.4626 20.8631 24.2187L21.3875 23.9128C22.8365 23.0676 24.697 23.5748 25.5166 25.0384L26.481 26.7606C26.7966 27.3242 26.8494 27.9977 26.6254 28.6036C26.1802 29.8072 25.3229 30.7774 24.268 31.2635C23.1964 31.7573 21.9415 31.7373 20.8063 30.9801C19.0096 29.7815 16.8432 27.7658 14.8814 24.4028C12.8941 20.996 12.3931 18.0949 12.4495 15.9333C12.4856 14.5486 13.2178 13.5152 14.2608 12.9316Z" fill="white"/>
<path d="M25.2899 12.476C25.0002 12.3151 24.635 12.4194 24.474 12.7091C24.3131 12.9988 24.4175 13.3641 24.7072 13.525L25.1679 13.781C28.0899 15.4043 30.0311 18.3564 30.3638 21.6824L30.4016 22.0602C30.4344 22.39 30.7286 22.6305 31.0582 22.5975C31.388 22.5646 31.6286 22.2706 31.5956 21.9408L31.5578 21.563C31.186 17.8457 29.0165 14.5463 25.7507 12.732L25.2899 12.476Z" fill="white"/>
<path d="M23.8864 15.6918C24.0569 15.4076 24.4254 15.3155 24.7096 15.486L24.8585 15.5753C26.8181 16.7511 28.1636 18.7272 28.5393 20.9815L28.5927 21.3018C28.6472 21.6287 28.4264 21.9378 28.0995 21.9923C27.7726 22.0467 27.4635 21.826 27.409 21.4991L27.3556 21.1788C27.0377 19.2713 25.8993 17.5992 24.2411 16.6043L24.0922 16.515C23.808 16.3445 23.7159 15.9759 23.8864 15.6918Z" fill="white"/>
</svg>
