<svg width="46" height="46" viewBox="0 0 46 46" fill="none" xmlns="http://www.w3.org/2000/svg">
<path d="M0 16C0 7.16344 7.16344 0 16 0H30C38.8366 0 46 7.16344 46 16V30C46 38.8366 38.8366 46 30 46H16C7.16344 46 0 38.8366 0 30V16Z" fill="#F3F3F3"/>
<g clip-path="url(#clip0_10_8889)">
<path d="M34.056 20.8267L23.8587 20.8262C23.4084 20.8262 23.0435 21.1911 23.0435 21.6414V24.899C23.0435 25.3492 23.4084 25.7142 23.8587 25.7142H29.6012C28.9724 27.3461 27.7987 28.7127 26.3014 29.5811L28.75 33.8198C32.6778 31.5482 35 27.5624 35 23.1006C35 22.4653 34.9531 22.0111 34.8595 21.4998C34.7883 21.1112 34.451 20.8267 34.056 20.8267Z" fill="#008080"/>
<path d="M22.5 30.6088C19.6897 30.6088 17.2364 29.0734 15.9187 26.8013L11.6802 29.2443C13.8372 32.9827 17.8779 35.5001 22.5 35.5001C24.7674 35.5001 26.9069 34.8897 28.75 33.8257V33.8199L26.3014 29.5812C25.1813 30.2308 23.8853 30.6088 22.5 30.6088Z" fill="#008080"/>
<path d="M28.75 33.8256V33.8198L26.3014 29.5811C25.1814 30.2306 23.8854 30.6087 22.5 30.6087V35.5001C24.7674 35.5001 26.907 34.8896 28.75 33.8256Z" fill="#008080"/>
<path d="M14.8913 23C14.8913 21.6148 15.2693 20.3189 15.9188 19.1989L11.6802 16.7559C10.6104 18.5931 10 20.7268 10 23C10 25.2733 10.6104 27.407 11.6802 29.2442L15.9188 26.8012C15.2693 25.6812 14.8913 24.3853 14.8913 23Z" fill="#008080"/>
<path d="M22.5 15.3913C24.3325 15.3913 26.0158 16.0425 27.3306 17.1256C27.655 17.3928 28.1264 17.3735 28.4235 17.0764L30.7316 14.7683C31.0688 14.4312 31.0447 13.8794 30.6846 13.567C28.4817 11.6559 25.6155 10.5 22.5 10.5C17.8779 10.5 13.8372 13.0174 11.6802 16.7558L15.9188 19.1989C17.2364 16.9268 19.6897 15.3913 22.5 15.3913Z" fill="#008080"/>
<path d="M27.3307 17.1256C27.655 17.3928 28.1265 17.3735 28.4236 17.0764L30.7317 14.7683C31.0688 14.4312 31.0447 13.8794 30.6847 13.567C28.4818 11.6559 25.6156 10.5 22.5 10.5V15.3913C24.3325 15.3913 26.0159 16.0425 27.3307 17.1256Z" fill="#008080"/>
</g>
<defs>
<clipPath id="clip0_10_8889">
<rect width="25" height="25" fill="white" transform="translate(10 10.5)"/>
</clipPath>
</defs>
</svg>
