<svg width="32" height="32" viewBox="0 0 32 32" fill="none" xmlns="http://www.w3.org/2000/svg">
<path d="M16.9331 22.5066H17.8664C19.3998 22.5066 20.6531 21.2533 20.6531 19.72V18.7866H16.9331V22.5066Z" fill="#008080"/>
<path d="M11.3467 19.72C11.3467 21.2533 12.6 22.5066 14.1333 22.5066H15.0667V18.7866H11.3467V19.72Z" fill="#008080"/>
<path d="M11.3467 16V16.9334H15.0667V13.2134H14.1333C12.6 13.2134 11.3467 14.4667 11.3467 16Z" fill="#008080"/>
<path d="M26.7065 9.09358L19.0398 3.72024C16.9465 2.25358 13.7465 2.33358 11.7332 3.89358L5.05317 9.10691C3.7065 10.1469 2.6665 12.2802 2.6665 13.9602V23.1602C2.6665 26.5602 5.4265 29.3336 8.81317 29.3336H23.1732C26.5598 29.3336 29.3198 26.5736 29.3198 23.1736V14.1336C29.3332 12.3336 28.1732 10.1202 26.7065 9.09358ZM22.5065 19.7202C22.5065 22.2802 20.4132 24.3736 17.8532 24.3736H14.1332C11.5732 24.3736 9.47984 22.2936 9.47984 19.7202V16.0002C9.47984 13.4402 11.5732 11.3469 14.1332 11.3469H17.8532C20.4132 11.3469 22.5065 13.4269 22.5065 16.0002V19.7202V19.7202Z" fill="#008080"/>
<path d="M17.8664 13.2134H16.9331V16.9334H20.6531V16C20.6531 14.4667 19.3998 13.2134 17.8664 13.2134Z" fill="#008080"/>
</svg>
