<svg width="32" height="32" viewBox="0 0 32 32" fill="none" xmlns="http://www.w3.org/2000/svg">
<g clip-path="url(#clip0_149_6641)">
<path d="M19.7286 9.34558L18.8432 11.5583L19.483 11.4796C21.6923 11.2031 23.8068 10.3761 24.8111 9.94264C25.7653 9.60171 26.589 9.01939 27.1813 8.26302C27.7788 7.50146 28.142 6.55446 28.1405 5.53158C28.142 4.86296 27.9855 4.22371 27.7118 3.65039C27.2983 2.78927 26.6202 2.07508 25.7828 1.57477C24.9439 1.07446 23.9409 0.786645 22.8655 0.785645C21.4324 0.786645 20.1269 1.29733 19.1671 2.14377C18.6876 2.56721 18.2936 3.07558 18.0195 3.65033C17.7445 4.22364 17.5903 4.86289 17.5903 5.53152C17.5894 6.38514 17.8416 7.18746 18.2732 7.87127C18.6421 8.45596 19.141 8.95527 19.7286 9.34558ZM18.6692 4.03821C19.0011 3.34214 19.5683 2.73414 20.2953 2.30021C21.0223 1.86633 21.9086 1.60833 22.8655 1.60883C24.143 1.60833 25.2906 2.06696 26.1071 2.78914C26.515 3.15002 26.8408 3.57446 27.0622 4.03814C27.2837 4.50239 27.4041 5.00414 27.4046 5.53146C27.4041 6.33571 27.1243 7.08502 26.6273 7.72089C26.1313 8.35583 25.4148 8.86896 24.5673 9.16677L24.5555 9.17008L24.5441 9.17483C23.6754 9.55277 21.9166 10.2385 20.0481 10.5633L20.6817 8.98277L20.3711 8.80539C19.7428 8.44646 19.2292 7.95802 18.8755 7.39796C18.5217 6.83508 18.3278 6.20439 18.3268 5.53146C18.3268 5.00421 18.4473 4.50246 18.6692 4.03821Z" fill="white"/>
<path d="M20.7848 6.28724C21.1016 6.28724 21.3581 6.0008 21.3581 5.64705C21.3581 5.29518 21.1016 5.0083 20.7848 5.0083C20.4694 5.0083 20.2124 5.29518 20.2124 5.64705C20.2124 6.0008 20.4695 6.28724 20.7848 6.28724Z" fill="white"/>
<path d="M22.9947 6.28724C23.3105 6.28724 23.5676 6.0008 23.5676 5.64705C23.5676 5.29518 23.3106 5.0083 22.9947 5.0083C22.6779 5.0083 22.4209 5.29518 22.4209 5.64705C22.4209 6.0008 22.6779 6.28724 22.9947 6.28724Z" fill="white"/>
<path d="M25.2037 6.28724C25.5205 6.28724 25.7766 6.0008 25.7766 5.64705C25.7766 5.29518 25.5205 5.0083 25.2037 5.0083C24.887 5.0083 24.6309 5.29518 24.6309 5.64705C24.6309 6.0008 24.887 6.28724 25.2037 6.28724Z" fill="white"/>
<path d="M31.9437 30.254L26.8545 18.4305C26.7454 18.1778 26.4969 18.0142 26.2218 18.0142H5.77877C5.5037 18.0142 5.2552 18.1778 5.14614 18.43L0.0559535 30.254C-0.035109 30.4664 -0.014234 30.7112 0.112828 30.9046C0.240891 31.0976 0.456141 31.2142 0.688516 31.2142H10.2799C11.0984 29.83 12.5106 28.8256 14.4918 28.5008C14.948 28.652 15.4346 28.7374 15.941 28.7374C16.4475 28.7374 16.934 28.652 17.3902 28.5008C19.3705 28.8256 20.7827 29.83 21.6012 31.2142H31.312C31.5435 31.2142 31.7597 31.0976 31.8868 30.9046C32.0138 30.7112 32.0356 30.4664 31.9437 30.254ZM19.4966 24.1287C19.4966 26.0923 17.9043 27.6843 15.941 27.6843C13.9768 27.6843 12.3854 26.0923 12.3854 24.1287V23.1195C12.3854 21.1558 13.9768 19.5639 15.941 19.5639C17.9043 19.5639 19.4966 21.1558 19.4966 23.1195V24.1287Z" fill="white"/>
<path d="M19.7948 16.5211C19.7948 14.7944 18.7814 13.3718 16.8457 13.0542C16.5792 13.1428 16.2951 13.1926 15.9997 13.1926C15.7033 13.1926 15.4192 13.1429 15.1527 13.0542C13.217 13.3719 12.2041 14.7945 12.2041 16.5211H15.9997H19.7948Z" fill="white"/>
<path d="M15.9999 12.5769C17.1465 12.5769 18.0769 11.6471 18.0769 10.4999V9.91051C18.0769 8.76288 17.1465 7.83301 15.9999 7.83301C14.8523 7.83301 13.9219 8.76288 13.9219 9.91051V10.4999C13.9219 11.647 14.8523 12.5769 15.9999 12.5769Z" fill="white"/>
</g>
<defs>
<clipPath id="clip0_149_6641">
<rect width="32" height="32" fill="white"/>
</clipPath>
</defs>
</svg>
