<svg width="32" height="32" viewBox="0 0 32 32" fill="none" xmlns="http://www.w3.org/2000/svg">
<g clip-path="url(#clip0_129_10612)">
<path d="M19.7286 9.34509L18.8432 11.5578L19.483 11.4791C21.6923 11.2026 23.8068 10.3756 24.8111 9.94216C25.7653 9.60122 26.589 9.01891 27.1813 8.26253C27.7788 7.50097 28.142 6.55397 28.1405 5.53109C28.142 4.86247 27.9855 4.22322 27.7118 3.64991C27.2983 2.78878 26.6202 2.07459 25.7828 1.57428C24.9439 1.07397 23.9409 0.786156 22.8655 0.785156C21.4324 0.786156 20.1269 1.29684 19.1671 2.14328C18.6876 2.56672 18.2936 3.07509 18.0195 3.64984C17.7445 4.22316 17.5903 4.86241 17.5903 5.53103C17.5894 6.38466 17.8416 7.18697 18.2732 7.87078C18.6421 8.45547 19.141 8.95478 19.7286 9.34509ZM18.6692 4.03772C19.0011 3.34166 19.5683 2.73366 20.2953 2.29972C21.0223 1.86584 21.9086 1.60784 22.8655 1.60834C24.143 1.60784 25.2906 2.06647 26.1071 2.78866C26.515 3.14953 26.8408 3.57397 27.0622 4.03766C27.2837 4.50191 27.4041 5.00366 27.4046 5.53097C27.4041 6.33522 27.1243 7.08453 26.6273 7.72041C26.1313 8.35534 25.4148 8.86847 24.5673 9.16628L24.5555 9.16959L24.5441 9.17434C23.6754 9.55228 21.9166 10.238 20.0481 10.5628L20.6817 8.98228L20.3711 8.80491C19.7428 8.44597 19.2292 7.95753 18.8755 7.39747C18.5217 6.83459 18.3278 6.20391 18.3268 5.53097C18.3268 5.00372 18.4473 4.50197 18.6692 4.03772Z" fill="#008080"/>
<path d="M20.7848 6.28675C21.1016 6.28675 21.3581 6.00031 21.3581 5.64656C21.3581 5.29469 21.1016 5.00781 20.7848 5.00781C20.4694 5.00781 20.2124 5.29469 20.2124 5.64656C20.2124 6.00031 20.4695 6.28675 20.7848 6.28675Z" fill="#008080"/>
<path d="M22.9947 6.28675C23.3105 6.28675 23.5676 6.00031 23.5676 5.64656C23.5676 5.29469 23.3106 5.00781 22.9947 5.00781C22.6779 5.00781 22.4209 5.29469 22.4209 5.64656C22.4209 6.00031 22.6779 6.28675 22.9947 6.28675Z" fill="#008080"/>
<path d="M25.2037 6.28675C25.5205 6.28675 25.7766 6.00031 25.7766 5.64656C25.7766 5.29469 25.5205 5.00781 25.2037 5.00781C24.887 5.00781 24.6309 5.29469 24.6309 5.64656C24.6309 6.00031 24.887 6.28675 25.2037 6.28675Z" fill="#008080"/>
<path d="M31.9437 30.2535L26.8545 18.43C26.7454 18.1773 26.4969 18.0137 26.2218 18.0137H5.77877C5.5037 18.0137 5.2552 18.1773 5.14614 18.4295L0.0559535 30.2535C-0.035109 30.4659 -0.014234 30.7107 0.112828 30.9041C0.240891 31.0971 0.456141 31.2137 0.688516 31.2137H10.2799C11.0984 29.8295 12.5106 28.8251 14.4918 28.5003C14.948 28.6515 15.4346 28.7369 15.941 28.7369C16.4475 28.7369 16.934 28.6515 17.3902 28.5003C19.3705 28.8251 20.7827 29.8295 21.6012 31.2137H31.312C31.5435 31.2137 31.7597 31.0971 31.8868 30.9041C32.0138 30.7107 32.0356 30.4659 31.9437 30.2535ZM19.4966 24.1282C19.4966 26.0919 17.9043 27.6838 15.941 27.6838C13.9768 27.6838 12.3854 26.0918 12.3854 24.1282V23.119C12.3854 21.1553 13.9768 19.5634 15.941 19.5634C17.9043 19.5634 19.4966 21.1554 19.4966 23.119V24.1282Z" fill="#008080"/>
<path d="M19.7948 16.5196C19.7948 14.793 18.7814 13.3704 16.8457 13.0527C16.5792 13.1414 16.2951 13.1912 15.9997 13.1912C15.7033 13.1912 15.4192 13.1414 15.1527 13.0527C13.217 13.3704 12.2041 14.793 12.2041 16.5196H15.9997H19.7948Z" fill="#008080"/>
<path d="M15.9999 12.576C17.1465 12.576 18.0769 11.6461 18.0769 10.499V9.90953C18.0769 8.76191 17.1465 7.83203 15.9999 7.83203C14.8523 7.83203 13.9219 8.76191 13.9219 9.90953V10.499C13.9219 11.646 14.8523 12.576 15.9999 12.576Z" fill="#008080"/>
</g>
<defs>
<clipPath id="clip0_129_10612">
<rect width="32" height="32" fill="white"/>
</clipPath>
</defs>
</svg>
