<svg width="48" height="48" viewBox="0 0 48 48" fill="none" xmlns="http://www.w3.org/2000/svg">
<path d="M15 39.5C23.2843 39.5 30 32.7843 30 24.5C30 16.2157 23.2843 9.5 15 9.5C6.71573 9.5 0 16.2157 0 24.5C0 32.7843 6.71573 39.5 15 39.5Z" fill="#F93232"/>
<path d="M33 9.5C29.631 9.5 26.532 10.625 24.03 12.5H24V12.521C23.406 12.968 22.86 13.472 22.3395 14H25.6605C26.1225 14.4695 26.5485 14.972 26.943 15.5H21.045C20.682 15.9785 20.349 16.478 20.0445 17H27.9405C28.2225 17.486 28.488 17.981 28.7175 18.5H19.281C19.0665 18.9875 18.8775 19.487 18.7155 20H29.2815C29.4375 20.489 29.5605 20.9915 29.6685 21.5H18.324C18.2235 21.992 18.1395 22.49 18.0885 23H29.91C29.9685 23.492 30 23.9915 30 24.5H18C18 25.0085 18.0405 25.505 18.09 26H29.913C29.856 26.5085 29.7735 27.008 29.67 27.5H18.3255C18.429 28.0115 18.5625 28.5095 18.717 29H29.283C29.121 29.513 28.932 30.0125 28.7175 30.5H19.281C19.5075 31.016 19.7625 31.517 20.0445 32H27.9405C27.6375 32.522 27.3 33.0215 26.937 33.5H21.045C21.444 34.028 21.8745 34.5305 22.338 35H25.6605C25.1385 35.5295 24.594 36.032 24 36.479C26.508 38.3675 29.6175 39.5 33 39.5C41.2845 39.5 48 32.783 48 24.5C48 16.217 41.2845 9.5 33 9.5Z" fill="#FED049"/>
</svg>
