<svg width="32" height="32" viewBox="0 0 32 32" fill="none" xmlns="http://www.w3.org/2000/svg">
<path d="M29.3178 14.6597L29.3185 21.7011C29.3185 23.6512 27.7962 25.2457 25.8752 25.3611L25.6518 25.3678H6.34807C4.39803 25.3678 2.80353 23.8455 2.68809 21.9245L2.6814 21.7011L2.68044 14.6597H29.3178ZM24.3372 19.3334H21.0039L20.8682 19.3425C20.3801 19.4087 20.0039 19.8271 20.0039 20.3334C20.0039 20.8397 20.3801 21.258 20.8682 21.3243L21.0039 21.3334H24.3372L24.4729 21.3243C24.961 21.258 25.3372 20.8397 25.3372 20.3334C25.3372 19.8271 24.961 19.4087 24.4729 19.3425L24.3372 19.3334ZM25.6518 6.69434C27.6019 6.69434 29.1964 8.21661 29.3118 10.1376L29.3185 10.361L29.3178 12.6597H2.68044L2.6814 10.361C2.6814 8.41096 4.20368 6.81646 6.12471 6.70103L6.34807 6.69434H25.6518Z" fill="white"/>
</svg>
