<svg width="32" height="32" viewBox="0 0 32 32" fill="none" xmlns="http://www.w3.org/2000/svg">
<path d="M29.318 14.6597L29.3187 21.7011C29.3187 23.6512 27.7965 25.2457 25.8754 25.3611L25.6521 25.3678H6.34829C4.39825 25.3678 2.80375 23.8455 2.68832 21.9245L2.68162 21.7011L2.68066 14.6597H29.318ZM24.3374 19.3334H21.0041L20.8684 19.3425C20.3803 19.4087 20.0041 19.8271 20.0041 20.3334C20.0041 20.8397 20.3803 21.258 20.8684 21.3243L21.0041 21.3334H24.3374L24.4731 21.3243C24.9612 21.258 25.3374 20.8397 25.3374 20.3334C25.3374 19.8271 24.9612 19.4087 24.4731 19.3425L24.3374 19.3334ZM25.6521 6.69434C27.6021 6.69434 29.1966 8.21661 29.312 10.1376L29.3187 10.361L29.318 12.6597H2.68066L2.68162 10.361C2.68162 8.41096 4.2039 6.81646 6.12493 6.70103L6.34829 6.69434H25.6521Z" fill="#008080"/>
</svg>
