<svg width="29" height="43" viewBox="0 0 29 43" fill="none" xmlns="http://www.w3.org/2000/svg">
<path d="M28.6667 7.16667C28.6667 3.225 25.4417 0 21.5 0H7.16667C3.225 0 0 3.225 0 7.16667V35.8333C0 39.775 3.225 43 7.16667 43H21.5C25.4417 43 28.6667 39.775 28.6667 35.8333V7.16667ZM16.125 39.4167H12.5417C11.4667 39.4167 10.75 38.7 10.75 37.625C10.75 36.55 11.4667 35.8333 12.5417 35.8333H16.125C17.2 35.8333 17.9167 36.55 17.9167 37.625C17.9167 38.7 17.2 39.4167 16.125 39.4167ZM25.0833 30.4583C25.0833 31.5333 24.3667 32.25 23.2917 32.25H5.375C4.3 32.25 3.58333 31.5333 3.58333 30.4583V8.95833C3.58333 7.88333 4.3 7.16667 5.375 7.16667H23.2917C24.3667 7.16667 25.0833 7.88333 25.0833 8.95833V30.4583Z" fill="#008080"/>
</svg>
