<svg width="32" height="32" viewBox="0 0 32 32" fill="none" xmlns="http://www.w3.org/2000/svg">
<path d="M25.9321 9.2545V12.6011C25.9321 13.5478 24.9721 14.1611 24.0788 13.8278C22.9588 13.4145 21.7188 13.2545 20.4121 13.3878C17.2388 13.7345 13.9855 16.7878 13.4521 19.9478C13.0121 22.5745 13.8521 25.0278 15.4655 26.7611C16.1988 27.5611 15.7055 28.8545 14.6255 28.9745C13.7055 29.0811 12.7987 29.0545 12.2921 28.6811L4.95875 23.2011C4.09208 22.5478 3.38541 21.1345 3.38541 20.0411V9.2545C3.38541 7.74783 4.53208 6.0945 5.93208 5.56116L13.2654 2.81448C14.0255 2.5345 15.2788 2.5345 16.0388 2.81448L23.3721 5.56116C24.7855 6.0945 25.9321 7.74783 25.9321 9.2545Z" fill="white"/>
<path d="M21.3333 15.3486C18.0267 15.3486 15.3333 18.042 15.3333 21.3486C15.3333 24.6553 18.0267 27.3486 21.3333 27.3486C24.64 27.3486 27.3333 24.6553 27.3333 21.3486C27.3333 18.0286 24.64 15.3486 21.3333 15.3486Z" fill="white"/>
<path d="M28 29.3348C27.64 29.3348 27.3067 29.1882 27.0533 28.9482C27 28.8815 26.9333 28.8148 26.8933 28.7348C26.84 28.6682 26.8 28.5882 26.7733 28.5082C26.7333 28.4282 26.7067 28.3482 26.6933 28.2682C26.68 28.1748 26.6667 28.0948 26.6667 28.0015C26.6667 27.8282 26.7067 27.6548 26.7733 27.4948C26.84 27.3215 26.9333 27.1882 27.0533 27.0548C27.36 26.7482 27.8267 26.6015 28.2533 26.6948C28.3467 26.7082 28.4267 26.7348 28.5067 26.7748C28.5867 26.8015 28.6667 26.8415 28.7333 26.8948C28.8133 26.9348 28.88 27.0015 28.9467 27.0548C29.0667 27.1882 29.16 27.3215 29.2267 27.4948C29.2933 27.6548 29.3333 27.8282 29.3333 28.0015C29.3333 28.3482 29.1867 28.6948 28.9467 28.9482C28.88 29.0015 28.8133 29.0548 28.7333 29.1082C28.6667 29.1615 28.5867 29.2015 28.5067 29.2282C28.4267 29.2682 28.3467 29.2948 28.2533 29.3082C28.1733 29.3215 28.08 29.3348 28 29.3348Z" fill="white"/>
</svg>
