<svg width="32" height="32" viewBox="0 0 32 32" fill="none" xmlns="http://www.w3.org/2000/svg">
<path d="M25.932 9.2545V12.6011C25.932 13.5478 24.972 14.1611 24.0786 13.8278C22.9586 13.4145 21.7186 13.2545 20.412 13.3878C17.2386 13.7345 13.9853 16.7878 13.452 19.9478C13.0119 22.5745 13.852 25.0278 15.4653 26.7611C16.1986 27.5611 15.7053 28.8545 14.6253 28.9745C13.7053 29.0811 12.7986 29.0545 12.2919 28.6811L4.95859 23.2011C4.09192 22.5478 3.38525 21.1345 3.38525 20.0411V9.2545C3.38525 7.74783 4.53192 6.0945 5.93192 5.56116L13.2653 2.81448C14.0253 2.5345 15.2786 2.5345 16.0386 2.81448L23.372 5.56116C24.7853 6.0945 25.932 7.74783 25.932 9.2545Z" fill="#008080"/>
<path d="M21.3335 15.3486C18.0268 15.3486 15.3335 18.042 15.3335 21.3486C15.3335 24.6553 18.0268 27.3486 21.3335 27.3486C24.6402 27.3486 27.3335 24.6553 27.3335 21.3486C27.3335 18.0286 24.6402 15.3486 21.3335 15.3486Z" fill="#008080"/>
<path d="M27.9998 29.3348C27.6398 29.3348 27.3065 29.1882 27.0532 28.9482C26.9998 28.8815 26.9332 28.8148 26.8932 28.7348C26.8398 28.6682 26.7998 28.5882 26.7732 28.5082C26.7332 28.4282 26.7065 28.3482 26.6932 28.2682C26.6798 28.1748 26.6665 28.0948 26.6665 28.0015C26.6665 27.8282 26.7065 27.6548 26.7732 27.4948C26.8398 27.3215 26.9332 27.1882 27.0532 27.0548C27.3598 26.7482 27.8265 26.6015 28.2532 26.6948C28.3465 26.7082 28.4265 26.7348 28.5065 26.7748C28.5865 26.8015 28.6665 26.8415 28.7332 26.8948C28.8132 26.9348 28.8798 27.0015 28.9465 27.0548C29.0665 27.1882 29.1598 27.3215 29.2265 27.4948C29.2932 27.6548 29.3332 27.8282 29.3332 28.0015C29.3332 28.3482 29.1865 28.6948 28.9465 28.9482C28.8798 29.0015 28.8132 29.0548 28.7332 29.1082C28.6665 29.1615 28.5865 29.2015 28.5065 29.2282C28.4265 29.2682 28.3465 29.2948 28.2532 29.3082C28.1732 29.3215 28.0798 29.3348 27.9998 29.3348Z" fill="#008080"/>
</svg>
