<svg width="32" height="32" viewBox="0 0 32 32" fill="none" xmlns="http://www.w3.org/2000/svg">
<path fill-rule="evenodd" clip-rule="evenodd" d="M21.9998 9.41766C21.9998 13.6777 19.4265 17.3337 15.9998 17.3337C12.5705 17.3337 9.9998 13.6777 9.9998 9.41632C9.9998 5.15766 12.2131 2.66699 15.9998 2.66699C19.7865 2.66699 21.9998 5.15633 21.9998 9.41766ZM5.46914 26.8563C5.98247 27.467 8.19314 29.3337 15.9998 29.3337C23.8065 29.3337 26.0158 27.467 26.5305 26.8577C26.5782 26.7991 26.6135 26.7314 26.6341 26.6587C26.6547 26.586 26.6603 26.5099 26.6505 26.435C26.5331 25.259 25.4745 20.0003 15.9998 20.0003C6.52514 20.0003 5.46647 25.259 5.3478 26.435C5.33815 26.51 5.34393 26.5862 5.36479 26.6589C5.38566 26.7315 5.42117 26.7979 5.46914 26.8563Z" fill="white"/>
</svg>
