<svg width="36" height="36" viewBox="0 0 36 36" fill="none" xmlns="http://www.w3.org/2000/svg">
<path d="M0 16C0 8.45753 0 4.68629 2.34315 2.34315C4.68629 0 8.45753 0 16 0H20C27.5425 0 31.3137 0 33.6569 2.34315C36 4.68629 36 8.45753 36 16V20C36 27.5425 36 31.3137 33.6569 33.6569C31.3137 36 27.5425 36 20 36H16C8.45753 36 4.68629 36 2.34315 33.6569C0 31.3137 0 27.5425 0 20V16Z" fill="url(#paint0_linear_126_10059)"/>
<path d="M29.5 12C29.5 11.7348 29.3946 11.4804 29.2071 11.2929C29.0196 11.1054 28.7652 11 28.5 11H18C17.7348 11 17.4804 11.1054 17.2929 11.2929C17.1054 11.4804 17 11.7348 17 12C17 12.2652 17.1054 12.5196 17.2929 12.7071C17.4804 12.8946 17.7348 13 18 13H28.5C28.7652 13 29.0196 12.8946 29.2071 12.7071C29.3946 12.5196 29.5 12.2652 29.5 12Z" fill="white"/>
<path d="M7.5 13H10.175C10.4109 13.6672 10.8751 14.2296 11.4855 14.5876C12.0959 14.9457 12.8132 15.0765 13.5107 14.9568C14.2082 14.8371 14.841 14.4747 15.2971 13.9337C15.7532 13.3926 16.0034 12.7077 16.0034 12C16.0034 11.2923 15.7532 10.6074 15.2971 10.0663C14.841 9.52528 14.2082 9.16288 13.5107 9.04321C12.8132 8.92354 12.0959 9.0543 11.4855 9.41237C10.8751 9.77045 10.4109 10.3328 10.175 11H7.5C7.23478 11 6.98043 11.1054 6.79289 11.2929C6.60536 11.4804 6.5 11.7348 6.5 12C6.5 12.2652 6.60536 12.5196 6.79289 12.7071C6.98043 12.8946 7.23478 13 7.5 13ZM13 11C13.1978 11 13.3911 11.0587 13.5556 11.1685C13.72 11.2784 13.8482 11.4346 13.9239 11.6173C13.9996 11.8 14.0194 12.0011 13.9808 12.1951C13.9422 12.3891 13.847 12.5673 13.7071 12.7071C13.5673 12.847 13.3891 12.9422 13.1951 12.9808C13.0011 13.0194 12.8 12.9996 12.6173 12.9239C12.4346 12.8482 12.2784 12.72 12.1685 12.5556C12.0586 12.3911 12 12.1978 12 12C12 11.7348 12.1054 11.4804 12.2929 11.2929C12.4804 11.1054 12.7348 11 13 11Z" fill="white"/>
<path d="M28.5 17H24.825C24.5891 16.3328 24.1249 15.7705 23.5145 15.4124C22.9041 15.0543 22.1868 14.9235 21.4893 15.0432C20.7918 15.1629 20.159 15.5253 19.7029 16.0663C19.2468 16.6074 18.9966 17.2923 18.9966 18C18.9966 18.7077 19.2468 19.3926 19.7029 19.9337C20.159 20.4747 20.7918 20.8371 21.4893 20.9568C22.1868 21.0765 22.9041 20.9457 23.5145 20.5876C24.1249 20.2296 24.5891 19.6672 24.825 19H28.5C28.7652 19 29.0196 18.8946 29.2071 18.7071C29.3947 18.5196 29.5 18.2652 29.5 18C29.5 17.7348 29.3947 17.4804 29.2071 17.2929C29.0196 17.1054 28.7652 17 28.5 17ZM22 19C21.8022 19 21.6089 18.9414 21.4444 18.8315C21.28 18.7216 21.1518 18.5654 21.0761 18.3827C21.0004 18.2 20.9806 17.9989 21.0192 17.8049C21.0578 17.6109 21.1531 17.4328 21.2929 17.2929C21.4328 17.153 21.6109 17.0578 21.8049 17.0192C21.9989 16.9806 22.2 17.0004 22.3827 17.0761C22.5654 17.1518 22.7216 17.28 22.8315 17.4444C22.9414 17.6089 23 17.8022 23 18C23 18.2652 22.8947 18.5196 22.7071 18.7071C22.5196 18.8946 22.2652 19 22 19Z" fill="white"/>
<path d="M17 17H7.5C7.23478 17 6.98043 17.1054 6.79289 17.2929C6.60536 17.4804 6.5 17.7348 6.5 18C6.5 18.2652 6.60536 18.5196 6.79289 18.7071C6.98043 18.8946 7.23478 19 7.5 19H17C17.2652 19 17.5196 18.8946 17.7071 18.7071C17.8946 18.5196 18 18.2652 18 18C18 17.7348 17.8946 17.4804 17.7071 17.2929C17.5196 17.1054 17.2652 17 17 17Z" fill="white"/>
<path d="M28.5 23H20C19.7348 23 19.4804 23.1054 19.2929 23.2929C19.1054 23.4804 19 23.7348 19 24C19 24.2652 19.1054 24.5196 19.2929 24.7071C19.4804 24.8946 19.7348 25 20 25H28.5C28.7652 25 29.0196 24.8946 29.2071 24.7071C29.3946 24.5196 29.5 24.2652 29.5 24C29.5 23.7348 29.3946 23.4804 29.2071 23.2929C29.0196 23.1054 28.7652 23 28.5 23Z" fill="white"/>
<path d="M15 21C14.3802 21.0007 13.7758 21.1934 13.27 21.5515C12.7641 21.9096 12.3816 22.4156 12.175 23H7.5C7.23478 23 6.98043 23.1054 6.79289 23.2929C6.60536 23.4804 6.5 23.7348 6.5 24C6.5 24.2652 6.60536 24.5196 6.79289 24.7071C6.98043 24.8946 7.23478 25 7.5 25H12.175C12.3584 25.5187 12.6809 25.9769 13.1072 26.3247C13.5335 26.6724 14.0472 26.8962 14.5921 26.9717C15.1371 27.0471 15.6923 26.9712 16.197 26.7523C16.7017 26.5335 17.1365 26.18 17.4539 25.7306C17.7713 25.2813 17.959 24.7533 17.9965 24.2044C18.0339 23.6556 17.9198 23.107 17.6665 22.6186C17.4131 22.1303 17.0304 21.721 16.5601 21.4355C16.0899 21.15 15.5501 20.9994 15 21ZM15 25C14.8022 25 14.6089 24.9414 14.4444 24.8315C14.28 24.7216 14.1518 24.5654 14.0761 24.3827C14.0004 24.2 13.9806 23.9989 14.0192 23.8049C14.0578 23.6109 14.153 23.4327 14.2929 23.2929C14.4327 23.153 14.6109 23.0578 14.8049 23.0192C14.9989 22.9806 15.2 23.0004 15.3827 23.0761C15.5654 23.1518 15.7216 23.28 15.8315 23.4444C15.9414 23.6089 16 23.8022 16 24C16 24.2652 15.8946 24.5196 15.7071 24.7071C15.5196 24.8946 15.2652 25 15 25Z" fill="white"/>
<defs>
<linearGradient id="paint0_linear_126_10059" x1="-4.47035e-08" y1="7.5" x2="36" y2="31.5" gradientUnits="userSpaceOnUse">
<stop stop-color="#115B8A"/>
<stop offset="1" stop-color="#008080"/>
</linearGradient>
</defs>
</svg>
