<svg width="24" height="24" viewBox="0 0 24 24" fill="none" xmlns="http://www.w3.org/2000/svg">
<path d="M21.9693 16.6303C23.0643 14.2805 23.2965 11.62 22.625 9.11599C21.9535 6.61199 20.4214 4.4246 18.2975 2.93791C16.1737 1.45121 13.594 0.760262 11.0114 0.986381C8.42887 1.2125 6.0085 2.34123 4.17536 4.17438C2.34221 6.00753 1.21348 8.42789 0.987358 11.0105C0.761239 13.5931 1.45219 16.1727 2.93888 18.2966C4.42558 20.4204 6.61297 21.9525 9.11696 22.624C11.621 23.2955 14.2815 23.0633 16.6313 21.9683L20.5143 22.9383C20.8493 23.022 21.2003 23.0175 21.533 22.9253C21.8658 22.8331 22.169 22.6563 22.4131 22.4122C22.6573 22.168 22.8341 21.8648 22.9263 21.532C23.0185 21.1993 23.023 20.8483 22.9393 20.5133L21.9693 16.6303ZM8.00132 14.0003C7.60576 14.0003 7.21908 13.883 6.89018 13.6633C6.56128 13.4435 6.30494 13.1312 6.15356 12.7657C6.00219 12.4003 5.96258 11.9981 6.03975 11.6102C6.11692 11.2222 6.3074 10.8658 6.58711 10.5861C6.86681 10.3064 7.22318 10.1159 7.61114 10.0388C7.9991 9.96161 8.40124 10.0012 8.76669 10.1526C9.13214 10.304 9.4445 10.5603 9.66426 10.8892C9.88402 11.2181 10.0013 11.6048 10.0013 12.0003C10.0013 12.5308 9.79061 13.0395 9.41554 13.4146C9.04046 13.7896 8.53176 14.0003 8.00132 14.0003ZM16.0013 14.0003C15.6058 14.0003 15.2191 13.883 14.8902 13.6633C14.5613 13.4435 14.3049 13.1312 14.1536 12.7657C14.0022 12.4003 13.9626 11.9981 14.0398 11.6102C14.1169 11.2222 14.3074 10.8658 14.5871 10.5861C14.8668 10.3064 15.2232 10.1159 15.6111 10.0388C15.9991 9.96161 16.4012 10.0012 16.7667 10.1526C17.1321 10.304 17.4445 10.5603 17.6643 10.8892C17.884 11.2181 18.0013 11.6048 18.0013 12.0003C18.0013 12.5308 17.7906 13.0395 17.4155 13.4146C17.0405 13.7896 16.5318 14.0003 16.0013 14.0003Z" fill="white"/>
</svg>
