<svg width="32" height="32" viewBox="0 0 32 32" fill="none" xmlns="http://www.w3.org/2000/svg">
<path fill-rule="evenodd" clip-rule="evenodd" d="M19.0384 2.86998C18.5447 2.66699 17.9187 2.66699 16.6667 2.66699C15.4147 2.66699 14.7887 2.66699 14.2949 2.86998C13.6365 3.14063 13.1134 3.65977 12.8407 4.31317C12.7162 4.61145 12.6675 4.95833 12.6485 5.46431C12.6205 6.2079 12.2362 6.89618 11.5869 7.26823C10.9376 7.64027 10.1448 7.62638 9.48198 7.27867C9.0309 7.04206 8.70385 6.91049 8.38132 6.86835C7.67478 6.77603 6.96024 6.96605 6.39488 7.39659C5.97085 7.7195 5.65785 8.25752 5.03186 9.33357C4.40588 10.4096 4.09289 10.9476 4.02313 11.4735C3.9301 12.1747 4.12157 12.8839 4.5554 13.445C4.75341 13.7011 5.03169 13.9163 5.4636 14.1857C6.09854 14.5817 6.50709 15.2562 6.50705 16.0003C6.50701 16.7445 6.09848 17.4189 5.4636 17.8147C5.03162 18.0842 4.75329 18.2995 4.55526 18.5557C4.12144 19.1167 3.92998 19.8258 4.023 20.527C4.09276 21.0529 4.40576 21.591 5.03173 22.667C5.65772 23.743 5.97072 24.2811 6.39474 24.6039C6.9601 25.0345 7.67465 25.2245 8.38118 25.1322C8.7037 25.0901 9.03073 24.9585 9.48177 24.7219C10.1447 24.3742 10.9375 24.3603 11.5868 24.7323C12.2362 25.1045 12.6204 25.7927 12.6485 26.5365C12.6675 27.0423 12.7162 27.3893 12.8407 27.6875C13.1134 28.3409 13.6365 28.8601 14.2949 29.1307C14.7887 29.3337 15.4147 29.3337 16.6667 29.3337C17.9187 29.3337 18.5447 29.3337 19.0384 29.1307C19.6968 28.8601 20.2199 28.3409 20.4925 27.6875C20.6171 27.3893 20.6659 27.0423 20.6849 26.5363C20.7129 25.7927 21.0971 25.1045 21.7464 24.7323C22.3957 24.3602 23.1885 24.3742 23.8515 24.7219C24.3025 24.9585 24.6295 25.0899 24.952 25.1321C25.6585 25.2245 26.3731 25.0345 26.9384 24.6039C27.3625 24.281 27.6755 23.743 28.3015 22.6669C28.9275 21.5909 29.2404 21.0529 29.3103 20.527C29.4032 19.8258 29.2117 19.1166 28.778 18.5555C28.5799 18.2994 28.3016 18.0841 27.8696 17.8147C27.2348 17.4189 26.8263 16.7443 26.8263 16.0002C26.8263 15.2561 27.2348 14.5818 27.8696 14.1859C28.3017 13.9165 28.58 13.7013 28.7781 13.445C29.2119 12.884 29.4033 12.1748 29.3104 11.4736C29.2405 10.9477 28.9276 10.4097 28.3016 9.33366C27.6756 8.25762 27.3627 7.71959 26.9385 7.39669C26.3732 6.96614 25.6587 6.77613 24.9521 6.86845C24.6296 6.91058 24.3025 7.04214 23.8516 7.27873C23.1887 7.62644 22.3959 7.64035 21.7465 7.26827C21.0972 6.89621 20.7129 6.20787 20.6848 5.46425C20.6657 4.9583 20.6171 4.61143 20.4925 4.31317C20.2199 3.65977 19.6968 3.14063 19.0384 2.86998ZM16.6667 20.0003C18.8927 20.0003 20.6971 18.2095 20.6971 16.0003C20.6971 13.7911 18.8927 12.0003 16.6667 12.0003C14.4407 12.0003 12.6362 13.7911 12.6362 16.0003C12.6362 18.2095 14.4407 20.0003 16.6667 20.0003Z" fill="#008080"/>
</svg>
