<svg width="54" height="48" viewBox="0 0 54 48" fill="none" xmlns="http://www.w3.org/2000/svg">
<g clip-path="url(#clip0_55_3459)">
<path d="M46.1625 20.7C45.3281 20.7 44.4094 21.3281 44.4094 22.8281H47.85C47.85 21.3281 46.9781 20.7 46.1625 20.7ZM35.1562 20.9437C34.3875 20.9437 33.9094 21.2156 33.5625 21.6L33.5813 26.55C33.9094 26.8969 34.3781 27.1781 35.1562 27.1781C36.3844 27.1781 37.2094 25.8375 37.2094 24.0469C37.2094 22.3031 36.3656 20.9344 35.1562 20.9437ZM49.5 3H4.5C2.01562 3 0 5.01562 0 7.5V40.5C0 42.9844 2.01562 45 4.5 45H49.5C51.9844 45 54 42.9844 54 40.5V7.5C54 5.01562 51.9844 3 49.5 3ZM11.4562 26.3531C11.4562 28.7531 9.55313 30.1125 6.77813 30.1312C5.63438 30.1312 4.37813 29.9062 3.14062 29.3719V26.1937C4.26562 26.7937 5.68125 27.2531 6.7875 27.2531C7.52813 27.2531 8.0625 27.0562 8.0625 26.4375C8.0625 24.8438 3 25.4438 3 21.7594C3 19.3969 4.8 17.9906 7.5 17.9906C8.60625 17.9906 9.70312 18.1594 10.8094 18.6V21.7313C9.79688 21.1875 8.5125 20.8781 7.5 20.8781C6.79688 20.8781 6.36563 21.0844 6.36563 21.6C6.36563 23.1 11.4562 22.3875 11.4562 26.3531ZM17.9062 21.0469H15.375V25.7812C15.375 27.7406 17.4844 27.1313 17.9062 26.9625V29.6719C17.4656 29.9156 16.6594 30.1125 15.5719 30.1125C13.5938 30.1125 12.1125 28.6594 12.1125 26.6906L12.1312 16.0125L15.3844 15.3187V18.2062H17.9062V21.0469ZM24.8438 21.2719C24.4219 21.1312 23.0906 20.9344 22.3031 21.9656V29.8781H18.975V18.2062H21.8531L22.0594 19.1906C22.8375 17.7562 24.3937 18.0469 24.8344 18.2062H24.8438V21.2719ZM28.9781 29.8781H25.6312V18.2062H28.9781V29.8781ZM28.9781 16.4813L25.6312 17.1937V14.4844L28.9781 13.7719V16.4813ZM35.925 30.1219C34.7625 30.1219 34.05 29.625 33.5719 29.2781L33.5625 33.0469L30.2344 33.75V18.2062H33.1687L33.3375 19.0312C33.7969 18.6094 34.6406 17.9906 35.9437 17.9906C38.2781 17.9906 40.4812 20.1 40.4812 23.9719C40.4812 28.2 38.3063 30.1125 35.925 30.1219ZM50.9625 25.2937H44.4469C44.5969 26.85 45.7406 27.3094 47.0344 27.3094C48.3563 27.3094 49.3969 27.0281 50.3062 26.5687V29.25C49.3969 29.7469 48.2063 30.1125 46.6125 30.1125C43.3688 30.1125 41.1 28.0781 41.1 24.0656C41.1 20.6719 43.0219 17.9813 46.1906 17.9813C49.35 17.9813 51 20.6719 51 24.0844C51 24.4125 50.9719 25.1062 50.9625 25.2937Z" fill="black"/>
</g>
<defs>
<clipPath id="clip0_55_3459">
<rect width="54" height="48" fill="white"/>
</clipPath>
</defs>
</svg>
