<svg width="32" height="32" viewBox="0 0 32 32" fill="none" xmlns="http://www.w3.org/2000/svg">
<path d="M27.612 10.8257V23.3723C27.612 26.6523 24.932 29.3323 21.652 29.3323H10.3453C7.06525 29.3323 4.38525 26.6523 4.38525 23.3723V10.8257C4.38525 8.54566 5.66525 6.559 7.54525 5.559C8.19859 5.21233 9.01192 5.679 9.01192 6.42566C9.01192 8.54566 10.7453 10.279 12.8653 10.279H19.132C21.252 10.279 22.9853 8.54566 22.9853 6.42566C22.9853 5.679 23.7853 5.21233 24.452 5.559C26.332 6.559 27.612 8.54566 27.612 10.8257Z" fill="#008080"/>
<path d="M19.1329 2.66699H12.8662C11.4795 2.66699 10.3462 3.78699 10.3462 5.17366V6.42699C10.3462 7.81366 11.4662 8.93366 12.8529 8.93366H19.1329C20.5196 8.93366 21.6396 7.81366 21.6396 6.42699V5.17366C21.6529 3.78699 20.5196 2.66699 19.1329 2.66699Z" fill="#008080"/>
</svg>
