<svg width="32" height="32" viewBox="0 0 32 32" fill="none" xmlns="http://www.w3.org/2000/svg">
<path d="M27.6121 10.8257V23.3723C27.6121 26.6523 24.9321 29.3323 21.6521 29.3323H10.3454C7.06541 29.3323 4.38541 26.6523 4.38541 23.3723V10.8257C4.38541 8.54566 5.66541 6.559 7.54541 5.559C8.19875 5.21233 9.01208 5.679 9.01208 6.42566C9.01208 8.54566 10.7454 10.279 12.8654 10.279H19.1321C21.2521 10.279 22.9855 8.54566 22.9855 6.42566C22.9855 5.679 23.7855 5.21233 24.4521 5.559C26.3321 6.559 27.6121 8.54566 27.6121 10.8257Z" fill="white"/>
<path d="M19.1331 2.66699H12.8664C11.4797 2.66699 10.3464 3.78699 10.3464 5.17366V6.42699C10.3464 7.81366 11.4664 8.93366 12.853 8.93366H19.1331C20.5197 8.93366 21.6397 7.81366 21.6397 6.42699V5.17366C21.6531 3.78699 20.5197 2.66699 19.1331 2.66699Z" fill="white"/>
</svg>
