<svg width="48" height="48" viewBox="0 0 48 48" fill="none" xmlns="http://www.w3.org/2000/svg">
<path fill-rule="evenodd" clip-rule="evenodd" d="M19.8109 17.2908L17.6111 30.8103H21.1307L23.3308 17.2908H19.8109ZM14.6498 17.2908L11.2941 26.5894L10.8972 24.5871L10.8975 24.5877L10.81 24.139C10.4039 23.2637 9.46328 21.6002 7.68719 20.1805C7.16209 19.7609 6.63278 19.4028 6.12109 19.0969L9.17087 30.8103H12.838L18.438 17.2908H14.6498ZM28.3862 21.0441C28.3862 19.5156 31.8139 19.712 33.3201 20.542L33.8223 17.6383C33.8223 17.6383 32.2723 17.0488 30.6566 17.0488C28.9098 17.0488 24.7621 17.8127 24.7621 21.5244C24.7621 25.0175 29.6303 25.0609 29.6303 26.8948C29.6303 28.7288 25.264 28.401 23.8231 27.2441L23.2994 30.2791C23.2994 30.2791 24.8709 31.043 27.2727 31.043C29.6742 31.043 33.2982 29.7988 33.2982 26.4145C33.2982 22.8996 28.3862 22.5722 28.3862 21.0441ZM42.7487 17.2908H39.9188C38.6121 17.2908 38.2939 18.2983 38.2939 18.2983L33.0451 30.8103H36.7136L37.4475 28.8023H41.922L42.3347 30.8103H45.5665L42.7487 17.2908ZM38.4617 26.0279L40.3112 20.9686L41.3517 26.0279H38.4617Z" fill="#005BAC"/>
<path fill-rule="evenodd" clip-rule="evenodd" d="M9.76153 18.5639C9.76153 18.5639 9.61584 17.3438 8.06053 17.3438H2.40994L2.34375 17.5731C2.34375 17.5731 5.05987 18.1267 7.66566 20.2012C10.1558 22.1838 10.9682 24.6552 10.9682 24.6552L9.76153 18.5639Z" fill="#F6AC1D"/>
</svg>
