<svg width="32" height="32" viewBox="0 0 32 32" fill="none" xmlns="http://www.w3.org/2000/svg">
<path d="M26.6668 23.9996C27.1223 24.0025 27.5743 23.9212 28.0002 23.7596V26.6663C28.0002 27.3736 27.7192 28.0518 27.2191 28.5519C26.719 29.052 26.0407 29.333 25.3335 29.333H6.66683C5.60597 29.333 4.58855 28.9115 3.83841 28.1614C3.08826 27.4113 2.66683 26.3938 2.66683 25.333V6.66631C2.64621 6.44456 2.64621 6.22139 2.66683 5.99964C2.8525 5.04354 3.37088 4.18413 4.12999 3.57391C4.88909 2.9637 5.83984 2.64214 6.8135 2.66631H21.3335C22.0407 2.66631 22.719 2.94726 23.2191 3.44736C23.7192 3.94745 24.0002 4.62573 24.0002 5.33298V6.66631H21.3335V5.33298H6.8135C6.47854 5.31647 6.14818 5.41632 5.87844 5.61559C5.60869 5.81486 5.41617 6.10129 5.3335 6.42631C5.32565 6.50612 5.32565 6.5865 5.3335 6.66631C5.33347 6.9841 5.44696 7.29145 5.6535 7.53298C5.77868 7.67933 5.93408 7.79683 6.10901 7.87739C6.28394 7.95795 6.47424 7.99965 6.66683 7.99964H25.3335C26.0407 7.99964 26.719 8.28059 27.2191 8.78069C27.7192 9.28079 28.0002 9.95906 28.0002 10.6663V13.573C27.5743 13.4114 27.1223 13.3301 26.6668 13.333H22.6668C21.606 13.333 20.5885 13.7544 19.8384 14.5045C19.0883 15.2547 18.6668 16.2721 18.6668 17.333V19.9996C18.6668 21.0605 19.0883 22.0779 19.8384 22.8281C20.5885 23.5782 21.606 23.9996 22.6668 23.9996H26.6668ZM28.0002 15.0263C27.595 14.7913 27.1352 14.6671 26.6668 14.6663H22.6668C21.9596 14.6663 21.2813 14.9473 20.7812 15.4474C20.2811 15.9475 20.0002 16.6257 20.0002 17.333V19.9996C20.0002 20.7069 20.2811 21.3852 20.7812 21.8853C21.2813 22.3854 21.9596 22.6663 22.6668 22.6663H26.6668C27.3741 22.6663 28.0524 22.3854 28.5524 21.8853C29.0525 21.3852 29.3335 20.7069 29.3335 19.9996V17.333C29.333 16.8653 29.2096 16.4061 28.9755 16.0012C28.7415 15.5963 28.4051 15.2601 28.0002 15.0263Z" fill="white"/>
</svg>
