<svg width="32" height="32" viewBox="0 0 32 32" fill="none" xmlns="http://www.w3.org/2000/svg">
<path d="M26.6667 23.9996C27.1221 24.0025 27.5742 23.9212 28 23.7596V26.6663C28 27.3736 27.719 28.0518 27.2189 28.5519C26.7188 29.052 26.0406 29.333 25.3333 29.333H6.66666C5.6058 29.333 4.58838 28.9115 3.83824 28.1614C3.08809 27.4113 2.66666 26.3938 2.66666 25.333V6.66631C2.64604 6.44456 2.64604 6.22139 2.66666 5.99964C2.85233 5.04354 3.37071 4.18413 4.12982 3.57391C4.88893 2.9637 5.83967 2.64214 6.81333 2.66631H21.3333C22.0406 2.66631 22.7189 2.94726 23.2189 3.44736C23.719 3.94745 24 4.62573 24 5.33298V6.66631H21.3333V5.33298H6.81333C6.47837 5.31647 6.14801 5.41632 5.87827 5.61559C5.60852 5.81486 5.416 6.10129 5.33333 6.42631C5.32549 6.50612 5.32549 6.5865 5.33333 6.66631C5.33331 6.9841 5.44679 7.29145 5.65333 7.53298C5.77851 7.67933 5.93391 7.79683 6.10884 7.87739C6.28377 7.95795 6.47408 7.99965 6.66666 7.99964H25.3333C26.0406 7.99964 26.7188 8.28059 27.2189 8.78069C27.719 9.28079 28 9.95906 28 10.6663V13.573C27.5742 13.4114 27.1221 13.3301 26.6667 13.333H22.6667C21.6058 13.333 20.5884 13.7544 19.8382 14.5045C19.0881 15.2547 18.6667 16.2721 18.6667 17.333V19.9996C18.6667 21.0605 19.0881 22.0779 19.8382 22.8281C20.5884 23.5782 21.6058 23.9996 22.6667 23.9996H26.6667ZM28 15.0263C27.5949 14.7913 27.135 14.6671 26.6667 14.6663H22.6667C21.9594 14.6663 21.2811 14.9473 20.781 15.4474C20.2809 15.9475 20 16.6257 20 17.333V19.9996C20 20.7069 20.2809 21.3852 20.781 21.8853C21.2811 22.3854 21.9594 22.6663 22.6667 22.6663H26.6667C27.3739 22.6663 28.0522 22.3854 28.5523 21.8853C29.0524 21.3852 29.3333 20.7069 29.3333 19.9996V17.333C29.3328 16.8653 29.2094 16.4061 28.9754 16.0012C28.7414 15.5963 28.405 15.2601 28 15.0263Z" fill="#008080"/>
</svg>
